G04 PROTEUS RS274X GERBER FILE*
%FSLAX45Y45*%
%MOMM*%
G01*
%ADD10C,0.254000*%
%ADD11C,0.762000*%
%AMPPAD002*
4,1,20,
-0.005000,0.625000,
0.005000,0.625000,
0.039760,0.621620,
0.071900,0.611880,
0.100810,0.596420,
0.125860,0.575860,
0.146420,0.550810,
0.161880,0.521900,
0.171620,0.489760,
0.175000,0.455000,
0.175000,-0.175000,
-0.175000,-0.175000,
-0.175000,0.455000,
-0.171620,0.489760,
-0.161880,0.521900,
-0.146420,0.550810,
-0.125860,0.575860,
-0.100810,0.596420,
-0.071900,0.611880,
-0.039760,0.621620,
-0.005000,0.625000,
0*%
%ADD12PPAD002*%
%ADD13R,1.270000X1.270000*%
%ADD14C,1.270000*%
%ADD15C,2.032000*%
%ADD16C,1.778000*%
%ADD17C,0.980000*%
%ADD18R,1.524000X1.524000*%
%ADD19C,0.000000*%
%ADD70C,1.524000*%
%ADD71C,0.203200*%
%TD.AperFunction*%
D10*
X+1814000Y+1024000D02*
X+2390960Y+447040D01*
X+4000000Y+447040D01*
X+2068000Y+1024000D02*
X+2520500Y+571500D01*
X+4064000Y+571500D01*
X+4127500Y+508000D01*
X+4127500Y+376420D01*
X+4000000Y+248920D01*
X+1250000Y-1250000D02*
X+1619000Y-1250000D01*
X+1750000Y-1381000D01*
X+742000Y-1250000D02*
X+508000Y-1250000D01*
X+504000Y-1254000D01*
X+0Y-1254000D01*
X-726000Y+1024000D02*
X-861000Y+889000D01*
X-1524000Y+889000D01*
X-1615000Y+980000D01*
X-1615000Y+1143000D01*
X-2095500Y+1623500D01*
X-2095500Y+2861500D01*
X-2246000Y+3012000D01*
X-980000Y+1024000D02*
X-861000Y+1143000D01*
X+381000Y+1143000D01*
X+500000Y+1262000D01*
X+500000Y+2250000D01*
X-1968500Y+254000D02*
X-1964162Y+258338D01*
X+571500Y+258338D01*
X+665700Y+164138D01*
X+665700Y-698500D01*
X+729200Y-762000D01*
X+1714500Y-762000D01*
X+2095500Y-1143000D01*
X+2730500Y-1143000D01*
X-2476500Y+1016000D02*
X-2476500Y-571500D01*
X-2413000Y-635000D01*
X+190500Y-635000D01*
X+2068000Y-500000D02*
X+2568000Y-1000000D01*
X+3925000Y-1000000D01*
X+825500Y-2095500D02*
X+762000Y-2159000D01*
X-1917000Y-2159000D01*
X-2258000Y-2500000D01*
X+190500Y+2222500D02*
X+0Y+2032000D01*
X-1778000Y+2032000D01*
X-1841500Y+2095500D01*
X-1841500Y+2413000D01*
X-1992000Y+2563500D01*
X-1992000Y+3012000D01*
X+1016000Y-2222500D02*
X-1726500Y-2222500D01*
X-2004000Y-2500000D01*
X+1524000Y+3302000D02*
X-1194000Y+3302000D01*
X-1484000Y+3012000D01*
X+2024000Y+3012000D02*
X+2024000Y+2857500D01*
X+1960500Y+2794000D01*
X-758000Y+2794000D01*
X-976000Y+3012000D01*
X+1226000Y-2500000D02*
X+1122500Y-2603500D01*
X-1115000Y-2603500D01*
X-1115000Y-2413000D01*
X-1178500Y-2349500D01*
X-1599500Y-2349500D01*
X-1750000Y-2500000D01*
X+2532000Y+3012000D02*
X+2425100Y+3118900D01*
X+1968500Y+3118900D01*
X+1905000Y+3055400D01*
X+1905000Y+2921000D01*
X+1841500Y+2857500D01*
X-313500Y+2857500D01*
X-468000Y+3012000D01*
X+1480000Y-2500000D02*
X+1630500Y-2349500D01*
X+1778000Y-2349500D01*
X+1841500Y-2413000D01*
X+1841500Y-2667000D01*
X+1778000Y-2730500D01*
X-1265500Y-2730500D01*
X-1496000Y-2500000D01*
X+1052000Y+1024000D02*
X+1171000Y+1143000D01*
X+1425000Y+1143000D01*
X+2532000Y+2250000D01*
X+381000Y+1397000D02*
X+444500Y+1460500D01*
X+444500Y+2032000D01*
X+317500Y+2159000D01*
X+317500Y+2286000D01*
X+246600Y+2356900D01*
X-361100Y+2356900D01*
X-468000Y+2250000D01*
X+1734000Y-2500000D02*
X+1567000Y-2667000D01*
X-1242000Y-2667000D01*
X-1242000Y-2500000D01*
X+698500Y+2032000D02*
X+698500Y+1333500D01*
X+798000Y+1234000D01*
X+798000Y+1024000D01*
X-976000Y+2250000D02*
X-813000Y+2413000D01*
X+571500Y+2413000D01*
X+635000Y+2349500D01*
X+635000Y+2095500D01*
X+698500Y+2032000D01*
X+1806000Y+2032000D01*
X+2024000Y+2250000D01*
X+571500Y-2349500D02*
X+444500Y-2349500D01*
X+889000Y+1333500D02*
X+925000Y+1297500D01*
X+925000Y+925000D01*
X+635000Y+635000D01*
X+571500Y-2349500D02*
X+1206500Y-2349500D01*
X+1270000Y-2286000D01*
X+2028000Y-2286000D01*
X+2242000Y-2500000D01*
X+1516000Y+2250000D02*
X+1289500Y+2476500D01*
X-1257500Y+2476500D01*
X-1484000Y+2250000D01*
X+444500Y-2349500D02*
X-583500Y-2349500D01*
X-734000Y-2500000D01*
X+317500Y+1841500D02*
X-1905000Y+1841500D01*
X-1992000Y+1928500D01*
X-1992000Y+2250000D01*
X+290000Y+1024000D02*
X-35500Y+698500D01*
X-317500Y+698500D01*
X-1750000Y+4500000D02*
X-1750000Y+4191000D01*
X-2413000Y+3528000D01*
X-2413000Y+3238500D01*
X-2349500Y+3175000D01*
X-1905000Y+3175000D01*
X-1841500Y+3111500D01*
X-1841500Y+2730500D01*
X-1738000Y+2627000D01*
X-1738000Y+2250000D01*
X-1587500Y+2159000D02*
X-1587500Y+3238500D01*
X-750000Y+4500000D02*
X-504500Y+4254500D01*
X-127000Y+4254500D01*
X-63500Y+4318000D01*
X-63500Y+4635500D01*
X-127000Y+4699000D01*
X-711000Y+4699000D01*
X-1000000Y+4988000D01*
X-250000Y+4500000D02*
X-385500Y+4635500D01*
X-901499Y+4635500D01*
X-1254000Y+4988000D01*
X-1253999Y+4988000D01*
X-1500000Y+4500000D02*
X-1500000Y+4064000D01*
X-1436500Y+4000500D01*
X-1016000Y+4000500D01*
X+1000000Y+4500000D02*
X+1000000Y+5207000D01*
X+1063500Y+5270500D01*
X+2479500Y+5270500D01*
X+2762000Y+4988000D01*
X+1250000Y+4500000D02*
X+1250000Y+4699000D01*
X+1365000Y+4814000D01*
X+1365000Y+5080000D01*
X+1428500Y+5143500D01*
X+2352500Y+5143500D01*
X+2508000Y+4988000D01*
X+762000Y+3175000D02*
X-1016000Y+3175000D01*
X-1079500Y+3111500D01*
X-1079500Y+2857500D01*
X-965200Y+2743200D01*
X+1587500Y+2743200D01*
X+1651000Y+2679700D01*
X+1651000Y+2159000D01*
X+1587500Y+2095500D01*
X+1416500Y+2095500D01*
X+1262000Y+2250000D01*
X+1750000Y+4500000D02*
X+1949000Y+4699000D01*
X+1965000Y+4699000D01*
X+2254000Y+4988000D01*
X+1750000Y+4500000D02*
X+2376500Y+3873500D01*
X+2921000Y+3873500D01*
X+2984500Y+3810000D01*
X+2984500Y+2603500D01*
X+2921000Y+2540000D01*
X+2060000Y+2540000D01*
X+1770000Y+2250000D01*
X+2250000Y+4500000D02*
X+2749500Y+4000500D01*
X+2921000Y+4000500D01*
X+3035300Y+3886200D01*
X+3035300Y+2480893D01*
X+2508893Y+2480893D01*
X+2278000Y+2250000D01*
X+2750000Y+4500000D02*
X+3238500Y+4500000D01*
X+3314700Y+4423800D01*
X+3314700Y+3556000D01*
X+3238500Y+3479800D01*
X+3238500Y+2984500D01*
X+3048000Y+4191000D02*
X+2809000Y+4191000D01*
X+2500000Y+4500000D01*
X+3238500Y+4191000D02*
X+3048000Y+4191000D01*
X+3238500Y+4191000D02*
X+3238500Y+3746500D01*
X+3111500Y+3619500D01*
X+3111500Y+2794000D01*
X+2000000Y+4500000D02*
X+2135500Y+4635500D01*
X+3302000Y+4635500D01*
X+3365500Y+4572000D01*
X+3365500Y+3175000D01*
X+1500000Y+4500000D02*
X+2278205Y+3721795D01*
X+2857500Y+3721795D01*
X+2921000Y+3658295D01*
X+2921000Y+3238500D01*
X+2857500Y+3175000D01*
X+1425000Y+3175000D01*
X+1262000Y+3012000D01*
X-1496000Y-1738000D02*
X-1392500Y-1841500D01*
X-1115000Y-1841500D01*
X-1115000Y-1524000D01*
X-1178500Y-1460500D01*
X-2730500Y-1460500D01*
X-2794000Y-1524000D01*
X-2794000Y-3175000D01*
X-2730500Y-3238500D01*
X-1988500Y-3238500D01*
X-1750000Y-3000000D01*
X-1242000Y-1738000D02*
X-1392500Y-1587500D01*
X-2603500Y-1587500D01*
X-2667000Y-1651000D01*
X-2667000Y-2794000D01*
X-2603500Y-2857500D01*
X-1642500Y-2857500D01*
X-1500000Y-3000000D01*
X-734000Y-1738000D02*
X-901000Y-1905000D01*
X-2286000Y-1905000D01*
X-2385000Y-2004000D01*
X-2385000Y-2730500D01*
X-2321500Y-2794000D01*
X-1206000Y-2794000D01*
X-1000000Y-3000000D01*
X+698500Y-2032000D02*
X-317500Y-2032000D01*
X+972000Y-1738000D02*
X+1122500Y-1587500D01*
X+1778000Y-1587500D01*
X+1841500Y-1651000D01*
X+1841500Y-2095500D01*
X+1905000Y-2159000D01*
X+2540000Y-2159000D01*
X+2637700Y-2256700D01*
X+2637700Y-3111500D01*
X+2574200Y-3175000D01*
X+1175000Y-3175000D01*
X+1000000Y-3000000D01*
X+1226000Y-1738000D02*
X+1710500Y-2222500D01*
X+2286000Y-2222500D01*
X+2349500Y-2286000D01*
X+2349500Y-2730500D01*
X+2286000Y-2794000D01*
X+1456000Y-2794000D01*
X+1250000Y-3000000D01*
X+2222500Y-2032000D02*
X+2286000Y-2095500D01*
X+2794000Y-2095500D01*
X+2857500Y-2159000D01*
X+2857500Y-2730500D01*
X+1968500Y-1587500D02*
X+3238500Y-1587500D01*
X+3302000Y-1651000D01*
X+3302000Y-3302000D01*
X+3238500Y-3365500D01*
X+1714500Y-3365500D01*
X+2095500Y-1841500D02*
X+3048000Y-1841500D01*
X+3111500Y-1905000D01*
X+3111500Y-3175000D01*
X+2222500Y-1460500D02*
X+3048000Y-1460500D01*
X+2476500Y-1968500D02*
X+2921000Y-1968500D01*
X+2984500Y-2032000D01*
X+2984500Y-2984500D01*
X+544000Y-500000D02*
X+282000Y-762000D01*
X+238000Y-762000D01*
X+0Y-1000000D01*
X+1750000Y-1000000D01*
X-750000Y-5016000D02*
X+750000Y-5016000D01*
X-1250000Y+3484000D02*
X-750000Y+3484000D01*
X-250000Y+3484000D02*
X+250000Y+3484000D01*
X-750000Y+3484000D02*
X-250000Y+3484000D01*
X+2250000Y-5016000D02*
X+2500000Y-5016000D01*
X+2000000Y-5016000D02*
X+2250000Y-5016000D01*
X+1750000Y-5016000D02*
X+2000000Y-5016000D01*
X-1000000Y-5016000D02*
X-750000Y-5016000D01*
X-1750000Y-5016000D02*
X-1500000Y-5016000D01*
X-2000000Y-5016000D02*
X-1750000Y-5016000D01*
X-2250000Y-5016000D02*
X-2000000Y-5016000D01*
X-2250000Y-5016000D02*
X-2500000Y-5016000D01*
X-1750000Y+3484000D02*
X-2000000Y+3484000D01*
X-2250000Y+3484000D01*
X-1750000Y+3484000D02*
X-1500000Y+3484000D01*
X-1250000Y+3484000D02*
X-1500000Y+3484000D01*
X+1250000Y+3484000D02*
X+1500000Y+3484000D01*
X+1000000Y+3484000D02*
X+250000Y+3484000D01*
X+1000000Y+3484000D02*
X+1250000Y+3484000D01*
X-2500000Y+3012000D02*
X-2500000Y+5266000D01*
X-2016000Y+5750000D01*
X-2250000Y-500000D02*
X-2131000Y-381000D01*
X+171000Y-381000D01*
X+290000Y-500000D01*
X-238000Y+5750000D02*
X+984000Y+5750000D01*
X-1508000Y+5750000D02*
X-1762000Y+5750000D01*
X-1000000Y+5750000D02*
X-1254000Y+5750000D01*
X-746000Y+5750000D02*
X-1000000Y+5750000D01*
X-492000Y+5750000D02*
X-746000Y+5750000D01*
X-238000Y+5750000D02*
X-492000Y+5750000D01*
X+2508000Y+5750000D02*
X+2762000Y+5750000D01*
X+2508000Y+5750000D02*
X+2254000Y+5750000D01*
X+2000000Y+5750000D01*
X+1746000Y+5750000D01*
X+1238000Y+5750000D02*
X+984000Y+5750000D01*
X-317500Y+2667000D02*
X-1460500Y+2667000D01*
D11*
X+2730500Y-1143000D03*
X-1968500Y+254000D03*
X+190500Y-635000D03*
X-2476500Y+1016000D03*
X+825500Y-2095500D03*
X+190500Y+2222500D03*
X+1016000Y-2222500D03*
X+1524000Y+3302000D03*
X+381000Y+1397000D03*
X+444500Y-2349500D03*
X+635000Y+635000D03*
X+889000Y+1333500D03*
X+317500Y+1841500D03*
X-317500Y+698500D03*
X-1587500Y+3238500D03*
X-1587500Y+2159000D03*
X-1016000Y+4000500D03*
X+762000Y+3175000D03*
X+3238500Y+2984500D03*
X+3048000Y+4191000D03*
X+3111500Y+2794000D03*
X+3365500Y+3175000D03*
X-317500Y-2032000D03*
X+698500Y-2032000D03*
X+2857500Y-2730500D03*
X+2222500Y-2032000D03*
X+1714500Y-3365500D03*
X+1968500Y-1587500D03*
X+3111500Y-3175000D03*
X+2095500Y-1841500D03*
X+3048000Y-1460500D03*
X+2222500Y-1460500D03*
X+2984500Y-2984500D03*
X+2476500Y-1968500D03*
X-1460500Y+2667000D03*
X-317500Y+2667000D03*
D12*
X-5250000Y-750000D03*
D13*
X-2250000Y-500000D03*
D14*
X-1996000Y-500000D03*
X-1742000Y-500000D03*
X-1488000Y-500000D03*
X-1234000Y-500000D03*
X-980000Y-500000D03*
X-726000Y-500000D03*
X-472000Y-500000D03*
X-218000Y-500000D03*
X+36000Y-500000D03*
X+290000Y-500000D03*
X+544000Y-500000D03*
X+798000Y-500000D03*
X+1052000Y-500000D03*
X+1306000Y-500000D03*
X+1560000Y-500000D03*
X+1814000Y-500000D03*
X+2068000Y-500000D03*
X+2322000Y-500000D03*
X+2576000Y-500000D03*
X+2576000Y+1024000D03*
X+2322000Y+1024000D03*
X+2068000Y+1024000D03*
X+1814000Y+1024000D03*
X+1560000Y+1024000D03*
X+1306000Y+1024000D03*
X+1052000Y+1024000D03*
X+798000Y+1024000D03*
X+544000Y+1024000D03*
X+290000Y+1024000D03*
X+36000Y+1024000D03*
X-218000Y+1024000D03*
X-472000Y+1024000D03*
X-726000Y+1024000D03*
X-980000Y+1024000D03*
X-1234000Y+1024000D03*
X-1488000Y+1024000D03*
X-1742000Y+1024000D03*
X-1996000Y+1024000D03*
X-2250000Y+1024000D03*
D13*
X-2500000Y+2250000D03*
D14*
X-2246000Y+2250000D03*
X-1992000Y+2250000D03*
X-1738000Y+2250000D03*
X-1484000Y+2250000D03*
X-1230000Y+2250000D03*
X-976000Y+2250000D03*
X-722000Y+2250000D03*
X-468000Y+2250000D03*
X-214000Y+2250000D03*
X-214000Y+3012000D03*
X-468000Y+3012000D03*
X-722000Y+3012000D03*
X-976000Y+3012000D03*
X-1230000Y+3012000D03*
X-1484000Y+3012000D03*
X-1738000Y+3012000D03*
X-1992000Y+3012000D03*
X-2246000Y+3012000D03*
X-2500000Y+3012000D03*
D13*
X+500000Y+2250000D03*
D14*
X+754000Y+2250000D03*
X+1008000Y+2250000D03*
X+1262000Y+2250000D03*
X+1516000Y+2250000D03*
X+1770000Y+2250000D03*
X+2024000Y+2250000D03*
X+2278000Y+2250000D03*
X+2532000Y+2250000D03*
X+2786000Y+2250000D03*
X+2786000Y+3012000D03*
X+2532000Y+3012000D03*
X+2278000Y+3012000D03*
X+2024000Y+3012000D03*
X+1770000Y+3012000D03*
X+1516000Y+3012000D03*
X+1262000Y+3012000D03*
X+1008000Y+3012000D03*
X+754000Y+3012000D03*
X+500000Y+3012000D03*
D13*
X-2512000Y-2500000D03*
D14*
X-2258000Y-2500000D03*
X-2004000Y-2500000D03*
X-1750000Y-2500000D03*
X-1496000Y-2500000D03*
X-1242000Y-2500000D03*
X-988000Y-2500000D03*
X-734000Y-2500000D03*
X-480000Y-2500000D03*
X-226000Y-2500000D03*
X-226000Y-1738000D03*
X-480000Y-1738000D03*
X-734000Y-1738000D03*
X-988000Y-1738000D03*
X-1242000Y-1738000D03*
X-1496000Y-1738000D03*
X-1750000Y-1738000D03*
X-2004000Y-1738000D03*
X-2258000Y-1738000D03*
X-2512000Y-1738000D03*
D13*
X+464000Y-2500000D03*
D14*
X+718000Y-2500000D03*
X+972000Y-2500000D03*
X+1226000Y-2500000D03*
X+1480000Y-2500000D03*
X+1734000Y-2500000D03*
X+1988000Y-2500000D03*
X+2242000Y-2500000D03*
X+2496000Y-2500000D03*
X+2750000Y-2500000D03*
X+2750000Y-1738000D03*
X+2496000Y-1738000D03*
X+2242000Y-1738000D03*
X+1988000Y-1738000D03*
X+1734000Y-1738000D03*
X+1480000Y-1738000D03*
X+1226000Y-1738000D03*
X+972000Y-1738000D03*
X+718000Y-1738000D03*
X+464000Y-1738000D03*
X+4000000Y+0D03*
X+4000000Y+248920D03*
X+4000000Y+447040D03*
X+4000000Y+695960D03*
D15*
X+1250000Y-1250000D03*
X+742000Y-1250000D03*
D16*
X-2500000Y-3000000D03*
X-2500000Y-3635000D03*
X-2000000Y-3000000D03*
X-2000000Y-3635000D03*
X-2250000Y-3000000D03*
X-2250000Y-3635000D03*
X-1750000Y-3000000D03*
X-1750000Y-3635000D03*
X-1500000Y-3000000D03*
X-1500000Y-3635000D03*
X-1250000Y-3000000D03*
X-1250000Y-3635000D03*
X-1000000Y-3000000D03*
X-1000000Y-3635000D03*
X-750000Y-3000000D03*
X-750000Y-3635000D03*
X+750000Y-3000000D03*
X+750000Y-3635000D03*
X+1000000Y-3000000D03*
X+1000000Y-3635000D03*
X+1250000Y-3000000D03*
X+1250000Y-3635000D03*
X+1500000Y-3000000D03*
X+1500000Y-3635000D03*
X+1750000Y-3000000D03*
X+1750000Y-3635000D03*
X+2000000Y-3000000D03*
X+2000000Y-3635000D03*
X+2250000Y-3000000D03*
X+2250000Y-3635000D03*
X+2500000Y-3000000D03*
X+2500000Y-3635000D03*
X+1750000Y-1000000D03*
X+1750000Y-1381000D03*
X+0Y-1000000D03*
X+0Y-1254000D03*
D17*
X+3925000Y-1000000D03*
X+4075000Y-1000000D03*
D16*
X-2500000Y-4000000D03*
X-2500000Y-5016000D03*
X-2250000Y-4000000D03*
X-2250000Y-5016000D03*
X-2000000Y-4000000D03*
X-2000000Y-5016000D03*
X-1750000Y-4000000D03*
X-1750000Y-5016000D03*
X-1500000Y-4000000D03*
X-1500000Y-5016000D03*
X-1250000Y-4000000D03*
X-1250000Y-5016000D03*
X-1000000Y-4000000D03*
X-1000000Y-5016000D03*
X-750000Y-4000000D03*
X-750000Y-5016000D03*
X+750000Y-4000000D03*
X+750000Y-5016000D03*
X+1000000Y-4000000D03*
X+1000000Y-5016000D03*
X+1250000Y-4000000D03*
X+1250000Y-5016000D03*
X+1500000Y-4000000D03*
X+1500000Y-5016000D03*
X+1750000Y-4000000D03*
X+1750000Y-5016000D03*
X+2000000Y-4000000D03*
X+2000000Y-5016000D03*
X+2250000Y-4000000D03*
X+2250000Y-5016000D03*
X+2500000Y-4000000D03*
X+2500000Y-5016000D03*
X+1000000Y+4500000D03*
X+1000000Y+3484000D03*
X+1250000Y+4500000D03*
X+1250000Y+3484000D03*
X+1750000Y+4500000D03*
X+1750000Y+3484000D03*
X+2250000Y+4500000D03*
X+2250000Y+3484000D03*
X+2750000Y+4500000D03*
X+2750000Y+3484000D03*
X+2500000Y+4500000D03*
X+2500000Y+3484000D03*
X+2000000Y+4500000D03*
X+2000000Y+3484000D03*
X+1500000Y+4500000D03*
X+1500000Y+3484000D03*
X-2250000Y+4500000D03*
X-2250000Y+3484000D03*
X-1750000Y+4500000D03*
X-1750000Y+3484000D03*
X-1250000Y+4500000D03*
X-1250000Y+3484000D03*
X-750000Y+4500000D03*
X-750000Y+3484000D03*
X-250000Y+4500000D03*
X-250000Y+3484000D03*
X+250000Y+4500000D03*
X+250000Y+3484000D03*
X-1500000Y+4500000D03*
X-1500000Y+3484000D03*
X-2000000Y+4500000D03*
X-2000000Y+3484000D03*
D18*
X-238000Y+5750000D03*
D19*
X-238000Y+5750000D03*
D70*
X-492000Y+5750000D03*
D19*
X-492000Y+5750000D03*
D70*
X-746000Y+5750000D03*
D19*
X-746000Y+5750000D03*
D70*
X-1000000Y+5750000D03*
D19*
X-1000000Y+5750000D03*
D70*
X-1254000Y+5750000D03*
D19*
X-1254000Y+5750000D03*
D70*
X-1508000Y+5750000D03*
D19*
X-1508000Y+5750000D03*
D70*
X-1762000Y+5750000D03*
D19*
X-1762000Y+5750000D03*
D70*
X-2016000Y+5750000D03*
D19*
X-2016000Y+5750000D03*
D70*
X-2016000Y+4988000D03*
D19*
X-2016000Y+4988000D03*
D70*
X-1762000Y+4988000D03*
D19*
X-1762000Y+4988000D03*
D70*
X-1508000Y+4988000D03*
D19*
X-1508000Y+4988000D03*
D70*
X-1254000Y+4988000D03*
D19*
X-1254000Y+4988000D03*
D70*
X-1000000Y+4988000D03*
D19*
X-1000000Y+4988000D03*
D70*
X-746000Y+4988000D03*
D19*
X-746000Y+4988000D03*
D70*
X-492000Y+4988000D03*
D19*
X-492000Y+4988000D03*
D70*
X-238000Y+4988000D03*
D19*
X-238000Y+4988000D03*
D18*
X+2762000Y+5750000D03*
D19*
X+2762000Y+5750000D03*
D70*
X+2508000Y+5750000D03*
D19*
X+2508000Y+5750000D03*
D70*
X+2254000Y+5750000D03*
D19*
X+2254000Y+5750000D03*
D70*
X+2000000Y+5750000D03*
D19*
X+2000000Y+5750000D03*
D70*
X+1746000Y+5750000D03*
D19*
X+1746000Y+5750000D03*
D70*
X+1492000Y+5750000D03*
D19*
X+1492000Y+5750000D03*
D70*
X+1238000Y+5750000D03*
D19*
X+1238000Y+5750000D03*
D70*
X+984000Y+5750000D03*
D19*
X+984000Y+5750000D03*
D70*
X+984000Y+4988000D03*
D19*
X+984000Y+4988000D03*
D70*
X+1238000Y+4988000D03*
D19*
X+1238000Y+4988000D03*
D70*
X+1492000Y+4988000D03*
D19*
X+1492000Y+4988000D03*
D70*
X+1746000Y+4988000D03*
D19*
X+1746000Y+4988000D03*
D70*
X+2000000Y+4988000D03*
D19*
X+2000000Y+4988000D03*
D70*
X+2254000Y+4988000D03*
D19*
X+2254000Y+4988000D03*
D70*
X+2508000Y+4988000D03*
D19*
X+2508000Y+4988000D03*
D70*
X+2762000Y+4988000D03*
D19*
X+2762000Y+4988000D03*
D71*
X-3250000Y-5750000D02*
X+5500000Y-5750000D01*
X+5500000Y+6500000D01*
X-3250000Y+6500000D01*
X-3250000Y-5750000D01*
M02*
