M48
METRIC,TZ
T01C0.3810
T02C0.7620
T03C0.6350
T04C2.0320
T05C0.6500
T06C0.8130
%
T01
X+27305Y-11430
X-19685Y+2540
X+1905Y-6350
X-24765Y+10160
X+8255Y-20955
X+1905Y+22225
X+10160Y-22225
X+15240Y+33020
X+3810Y+13970
X+4445Y-23495
X+6350Y+6350
X+8890Y+13335
X+3175Y+18415
X-3175Y+6985
X-15875Y+32385
X-15875Y+21590
X-10160Y+40005
X+7620Y+31750
X+32385Y+29845
X+30480Y+41910
X+31115Y+27940
X+33655Y+31750
X-3175Y-20320
X+6985Y-20320
X+28575Y-27305
X+22225Y-20320
X+17145Y-33655
X+19685Y-15875
X+31115Y-31750
X+20955Y-18415
X+30480Y-14605
X+22225Y-14605
X+29845Y-29845
X+24765Y-19685
X-14605Y+26670
X-3175Y+26670
T02
X-22500Y-5000
X-19960Y-5000
X-17420Y-5000
X-14880Y-5000
X-12340Y-5000
X-9800Y-5000
X-7260Y-5000
X-4720Y-5000
X-2180Y-5000
X+360Y-5000
X+2900Y-5000
X+5440Y-5000
X+7980Y-5000
X+10520Y-5000
X+13060Y-5000
X+15600Y-5000
X+18140Y-5000
X+20680Y-5000
X+23220Y-5000
X+25760Y-5000
X+25760Y+10240
X+23220Y+10240
X+20680Y+10240
X+18140Y+10240
X+15600Y+10240
X+13060Y+10240
X+10520Y+10240
X+7980Y+10240
X+5440Y+10240
X+2900Y+10240
X+360Y+10240
X-2180Y+10240
X-4720Y+10240
X-7260Y+10240
X-9800Y+10240
X-12340Y+10240
X-14880Y+10240
X-17420Y+10240
X-19960Y+10240
X-22500Y+10240
X-25000Y+22500
X-22460Y+22500
X-19920Y+22500
X-17380Y+22500
X-14840Y+22500
X-12300Y+22500
X-9760Y+22500
X-7220Y+22500
X-4680Y+22500
X-2140Y+22500
X-2140Y+30120
X-4680Y+30120
X-7220Y+30120
X-9760Y+30120
X-12300Y+30120
X-14840Y+30120
X-17380Y+30120
X-19920Y+30120
X-22460Y+30120
X-25000Y+30120
X+5000Y+22500
X+7540Y+22500
X+10080Y+22500
X+12620Y+22500
X+15160Y+22500
X+17700Y+22500
X+20240Y+22500
X+22780Y+22500
X+25320Y+22500
X+27860Y+22500
X+27860Y+30120
X+25320Y+30120
X+22780Y+30120
X+20240Y+30120
X+17700Y+30120
X+15160Y+30120
X+12620Y+30120
X+10080Y+30120
X+7540Y+30120
X+5000Y+30120
X-25120Y-25000
X-22580Y-25000
X-20040Y-25000
X-17500Y-25000
X-14960Y-25000
X-12420Y-25000
X-9880Y-25000
X-7340Y-25000
X-4800Y-25000
X-2260Y-25000
X-2260Y-17380
X-4800Y-17380
X-7340Y-17380
X-9880Y-17380
X-12420Y-17380
X-14960Y-17380
X-17500Y-17380
X-20040Y-17380
X-22580Y-17380
X-25120Y-17380
X+4640Y-25000
X+7180Y-25000
X+9720Y-25000
X+12260Y-25000
X+14800Y-25000
X+17340Y-25000
X+19880Y-25000
X+22420Y-25000
X+24960Y-25000
X+27500Y-25000
X+27500Y-17380
X+24960Y-17380
X+22420Y-17380
X+19880Y-17380
X+17340Y-17380
X+14800Y-17380
X+12260Y-17380
X+9720Y-17380
X+7180Y-17380
X+4640Y-17380
X+12500Y-12500
X+7420Y-12500
X-25000Y-30000
X-25000Y-36350
X-20000Y-30000
X-20000Y-36350
X-22500Y-30000
X-22500Y-36350
X-17500Y-30000
X-17500Y-36350
X-15000Y-30000
X-15000Y-36350
X-12500Y-30000
X-12500Y-36350
X-10000Y-30000
X-10000Y-36350
X-7500Y-30000
X-7500Y-36350
X+7500Y-30000
X+7500Y-36350
X+10000Y-30000
X+10000Y-36350
X+12500Y-30000
X+12500Y-36350
X+15000Y-30000
X+15000Y-36350
X+17500Y-30000
X+17500Y-36350
X+20000Y-30000
X+20000Y-36350
X+22500Y-30000
X+22500Y-36350
X+25000Y-30000
X+25000Y-36350
X+17500Y-10000
X+17500Y-13810
X+0Y-10000
X+0Y-12540
X-25000Y-40000
X-25000Y-50160
X-22500Y-40000
X-22500Y-50160
X-20000Y-40000
X-20000Y-50160
X-17500Y-40000
X-17500Y-50160
X-15000Y-40000
X-15000Y-50160
X-12500Y-40000
X-12500Y-50160
X-10000Y-40000
X-10000Y-50160
X-7500Y-40000
X-7500Y-50160
X+7500Y-40000
X+7500Y-50160
X+10000Y-40000
X+10000Y-50160
X+12500Y-40000
X+12500Y-50160
X+15000Y-40000
X+15000Y-50160
X+17500Y-40000
X+17500Y-50160
X+20000Y-40000
X+20000Y-50160
X+22500Y-40000
X+22500Y-50160
X+25000Y-40000
X+25000Y-50160
X+10000Y+45000
X+10000Y+34840
X+12500Y+45000
X+12500Y+34840
X+17500Y+45000
X+17500Y+34840
X+22500Y+45000
X+22500Y+34840
X+27500Y+45000
X+27500Y+34840
X+25000Y+45000
X+25000Y+34840
X+20000Y+45000
X+20000Y+34840
X+15000Y+45000
X+15000Y+34840
X-22500Y+45000
X-22500Y+34840
X-17500Y+45000
X-17500Y+34840
X-12500Y+45000
X-12500Y+34840
X-7500Y+45000
X-7500Y+34840
X-2500Y+45000
X-2500Y+34840
X+2500Y+45000
X+2500Y+34840
X-15000Y+45000
X-15000Y+34840
X-20000Y+45000
X-20000Y+34840
T03
X+40000Y+0
X+40000Y+2489
X+40000Y+4470
X+40000Y+6960
T04
X+40991Y-2515
X+40991Y+9474
T05
X+39250Y-10000
X+40750Y-10000
T06
X-2380Y+57500
X-4920Y+57500
X-7460Y+57500
X-10000Y+57500
X-12540Y+57500
X-15080Y+57500
X-17620Y+57500
X-20160Y+57500
X-20160Y+49880
X-17620Y+49880
X-15080Y+49880
X-12540Y+49880
X-10000Y+49880
X-7460Y+49880
X-4920Y+49880
X-2380Y+49880
X+27620Y+57500
X+25080Y+57500
X+22540Y+57500
X+20000Y+57500
X+17460Y+57500
X+14920Y+57500
X+12380Y+57500
X+9840Y+57500
X+9840Y+49880
X+12380Y+49880
X+14920Y+49880
X+17460Y+49880
X+20000Y+49880
X+22540Y+49880
X+25080Y+49880
X+27620Y+49880
M30
