G04 PROTEUS RS274X GERBER FILE*
%FSLAX45Y45*%
%MOMM*%
G01*
%ADD71C,0.203200*%
%ADD26C,0.990600*%
%ADD27C,0.533400*%
%ADD28C,0.646000*%
%ADD29C,0.316990*%
%ADD72C,0.106680*%
%ADD73C,0.164590*%
%ADD30C,0.050000*%
%ADD31C,0.151660*%
%ADD21C,0.152400*%
%ADD32C,0.524760*%
%ADD33C,0.447040*%
%TD.AperFunction*%
D71*
X-2387160Y-563500D02*
X+2713160Y-563500D01*
X+2713160Y+1087500D01*
X-2387160Y+1087500D01*
X-2387160Y-563500D01*
D26*
X-629480Y+559180D02*
X-629480Y+63880D01*
X-530420Y-35180D01*
X-134180Y-35180D01*
X-35120Y+63880D01*
X-35120Y+559180D01*
X+361120Y+361060D02*
X+559240Y+559180D01*
X+559240Y-35180D01*
D71*
X-2637160Y+2186500D02*
X-76840Y+2186500D01*
X-76840Y+3075500D01*
X-2637160Y+3075500D01*
X-2637160Y+2186500D01*
D27*
X-1783720Y+2791020D02*
X-1783720Y+2524320D01*
X-1730380Y+2470980D01*
X-1517020Y+2470980D01*
X-1463680Y+2524320D01*
X-1463680Y+2791020D01*
X-1303660Y+2737680D02*
X-1250320Y+2791020D01*
X-1090300Y+2791020D01*
X-1036960Y+2737680D01*
X-1036960Y+2684340D01*
X-1090300Y+2631000D01*
X-1250320Y+2631000D01*
X-1303660Y+2577660D01*
X-1303660Y+2470980D01*
X-1036960Y+2470980D01*
D71*
X+362840Y+2186500D02*
X+2923160Y+2186500D01*
X+2923160Y+3075500D01*
X+362840Y+3075500D01*
X+362840Y+2186500D01*
D27*
X+1216280Y+2791020D02*
X+1216280Y+2524320D01*
X+1269620Y+2470980D01*
X+1482980Y+2470980D01*
X+1536320Y+2524320D01*
X+1536320Y+2791020D01*
X+1696340Y+2737680D02*
X+1749680Y+2791020D01*
X+1909700Y+2791020D01*
X+1963040Y+2737680D01*
X+1963040Y+2684340D01*
X+1909700Y+2631000D01*
X+1963040Y+2577660D01*
X+1963040Y+2524320D01*
X+1909700Y+2470980D01*
X+1749680Y+2470980D01*
X+1696340Y+2524320D01*
X+1803020Y+2631000D02*
X+1909700Y+2631000D01*
D71*
X-2649160Y-2563500D02*
X-88840Y-2563500D01*
X-88840Y-1674500D01*
X-2649160Y-1674500D01*
X-2649160Y-2563500D01*
D27*
X-1795720Y-1958980D02*
X-1795720Y-2225680D01*
X-1742380Y-2279020D01*
X-1529020Y-2279020D01*
X-1475680Y-2225680D01*
X-1475680Y-1958980D01*
X-1048960Y-2012320D02*
X-1102300Y-1958980D01*
X-1262320Y-1958980D01*
X-1315660Y-2012320D01*
X-1315660Y-2225680D01*
X-1262320Y-2279020D01*
X-1102300Y-2279020D01*
X-1048960Y-2225680D01*
X-1048960Y-2172340D01*
X-1102300Y-2119000D01*
X-1315660Y-2119000D01*
D71*
X+326840Y-2563500D02*
X+2887160Y-2563500D01*
X+2887160Y-1674500D01*
X+326840Y-1674500D01*
X+326840Y-2563500D01*
D27*
X+1180280Y-1958980D02*
X+1180280Y-2225680D01*
X+1233620Y-2279020D01*
X+1446980Y-2279020D01*
X+1500320Y-2225680D01*
X+1500320Y-1958980D01*
X+1660340Y-1958980D02*
X+1927040Y-1958980D01*
X+1927040Y-2012320D01*
X+1660340Y-2279020D01*
D71*
X+3936500Y-365760D02*
X+5874520Y-365760D01*
X+5874520Y+1061720D01*
X+3936500Y+1061720D01*
X+3936500Y-365760D01*
D28*
X+4388706Y+283379D02*
X+4388706Y+218778D01*
X+4453306Y+154178D01*
X+4711708Y+154178D01*
X+4776309Y+218778D01*
X+4776309Y+541781D01*
X+5034711Y+412580D02*
X+5163912Y+541781D01*
X+5163912Y+154178D01*
D71*
X+477840Y-1514160D02*
X+1514160Y-1514160D01*
X+1514160Y-985840D01*
X+477840Y-985840D01*
X+477840Y-1514160D01*
D29*
X+742407Y-1154903D02*
X+932601Y-1345098D01*
X+742407Y-1345098D02*
X+932601Y-1154903D01*
X+1059398Y-1218301D02*
X+1122796Y-1154903D01*
X+1122796Y-1345098D01*
D71*
X-2588900Y-3723900D02*
X-2411100Y-3723900D01*
X-2411100Y-2911100D01*
X-2588900Y-2911100D01*
X-2588900Y-3723900D01*
D72*
X-2467996Y-3402844D02*
X-2532004Y-3402844D01*
X-2532004Y-3360172D01*
X-2510668Y-3338836D01*
X-2489332Y-3338836D01*
X-2467996Y-3360172D01*
X-2467996Y-3402844D01*
X-2510668Y-3296164D02*
X-2532004Y-3274828D01*
X-2467996Y-3274828D01*
D71*
X-2088900Y-3723900D02*
X-1911100Y-3723900D01*
X-1911100Y-2911100D01*
X-2088900Y-2911100D01*
X-2088900Y-3723900D01*
D72*
X-1967996Y-3402844D02*
X-2032004Y-3402844D01*
X-2032004Y-3360172D01*
X-2010668Y-3338836D01*
X-1989332Y-3338836D01*
X-1967996Y-3360172D01*
X-1967996Y-3402844D01*
X-2021336Y-3306832D02*
X-2032004Y-3296164D01*
X-2032004Y-3264160D01*
X-2021336Y-3253492D01*
X-2010668Y-3253492D01*
X-2000000Y-3264160D01*
X-1989332Y-3253492D01*
X-1978664Y-3253492D01*
X-1967996Y-3264160D01*
X-1967996Y-3296164D01*
X-1978664Y-3306832D01*
X-2000000Y-3285496D02*
X-2000000Y-3264160D01*
D71*
X-2338900Y-3723900D02*
X-2161100Y-3723900D01*
X-2161100Y-2911100D01*
X-2338900Y-2911100D01*
X-2338900Y-3723900D01*
D72*
X-2217996Y-3402844D02*
X-2282004Y-3402844D01*
X-2282004Y-3360172D01*
X-2260668Y-3338836D01*
X-2239332Y-3338836D01*
X-2217996Y-3360172D01*
X-2217996Y-3402844D01*
X-2271336Y-3306832D02*
X-2282004Y-3296164D01*
X-2282004Y-3264160D01*
X-2271336Y-3253492D01*
X-2260668Y-3253492D01*
X-2250000Y-3264160D01*
X-2250000Y-3296164D01*
X-2239332Y-3306832D01*
X-2217996Y-3306832D01*
X-2217996Y-3253492D01*
D71*
X-1838900Y-3723900D02*
X-1661100Y-3723900D01*
X-1661100Y-2911100D01*
X-1838900Y-2911100D01*
X-1838900Y-3723900D01*
D72*
X-1717996Y-3402844D02*
X-1782004Y-3402844D01*
X-1782004Y-3360172D01*
X-1760668Y-3338836D01*
X-1739332Y-3338836D01*
X-1717996Y-3360172D01*
X-1717996Y-3402844D01*
X-1739332Y-3253492D02*
X-1739332Y-3317500D01*
X-1782004Y-3274828D01*
X-1717996Y-3274828D01*
D71*
X-1588900Y-3723900D02*
X-1411100Y-3723900D01*
X-1411100Y-2911100D01*
X-1588900Y-2911100D01*
X-1588900Y-3723900D01*
D72*
X-1467996Y-3402844D02*
X-1532004Y-3402844D01*
X-1532004Y-3360172D01*
X-1510668Y-3338836D01*
X-1489332Y-3338836D01*
X-1467996Y-3360172D01*
X-1467996Y-3402844D01*
X-1532004Y-3253492D02*
X-1532004Y-3306832D01*
X-1510668Y-3306832D01*
X-1510668Y-3264160D01*
X-1500000Y-3253492D01*
X-1478664Y-3253492D01*
X-1467996Y-3264160D01*
X-1467996Y-3296164D01*
X-1478664Y-3306832D01*
D71*
X-1338900Y-3723900D02*
X-1161100Y-3723900D01*
X-1161100Y-2911100D01*
X-1338900Y-2911100D01*
X-1338900Y-3723900D01*
D72*
X-1217996Y-3402844D02*
X-1282004Y-3402844D01*
X-1282004Y-3360172D01*
X-1260668Y-3338836D01*
X-1239332Y-3338836D01*
X-1217996Y-3360172D01*
X-1217996Y-3402844D01*
X-1271336Y-3253492D02*
X-1282004Y-3264160D01*
X-1282004Y-3296164D01*
X-1271336Y-3306832D01*
X-1228664Y-3306832D01*
X-1217996Y-3296164D01*
X-1217996Y-3264160D01*
X-1228664Y-3253492D01*
X-1239332Y-3253492D01*
X-1250000Y-3264160D01*
X-1250000Y-3306832D01*
D71*
X-1088900Y-3723900D02*
X-911100Y-3723900D01*
X-911100Y-2911100D01*
X-1088900Y-2911100D01*
X-1088900Y-3723900D01*
D72*
X-967996Y-3402844D02*
X-1032004Y-3402844D01*
X-1032004Y-3360172D01*
X-1010668Y-3338836D01*
X-989332Y-3338836D01*
X-967996Y-3360172D01*
X-967996Y-3402844D01*
X-1032004Y-3306832D02*
X-1032004Y-3253492D01*
X-1021336Y-3253492D01*
X-967996Y-3306832D01*
D71*
X-838900Y-3723900D02*
X-661100Y-3723900D01*
X-661100Y-2911100D01*
X-838900Y-2911100D01*
X-838900Y-3723900D01*
D72*
X-717996Y-3402844D02*
X-782004Y-3402844D01*
X-782004Y-3360172D01*
X-760668Y-3338836D01*
X-739332Y-3338836D01*
X-717996Y-3360172D01*
X-717996Y-3402844D01*
X-750000Y-3296164D02*
X-760668Y-3306832D01*
X-771336Y-3306832D01*
X-782004Y-3296164D01*
X-782004Y-3264160D01*
X-771336Y-3253492D01*
X-760668Y-3253492D01*
X-750000Y-3264160D01*
X-750000Y-3296164D01*
X-739332Y-3306832D01*
X-728664Y-3306832D01*
X-717996Y-3296164D01*
X-717996Y-3264160D01*
X-728664Y-3253492D01*
X-739332Y-3253492D01*
X-750000Y-3264160D01*
D71*
X+661100Y-3723900D02*
X+838900Y-3723900D01*
X+838900Y-2911100D01*
X+661100Y-2911100D01*
X+661100Y-3723900D01*
D72*
X+782004Y-3402844D02*
X+717996Y-3402844D01*
X+717996Y-3360172D01*
X+739332Y-3338836D01*
X+760668Y-3338836D01*
X+782004Y-3360172D01*
X+782004Y-3402844D01*
X+739332Y-3253492D02*
X+750000Y-3264160D01*
X+750000Y-3296164D01*
X+739332Y-3306832D01*
X+728664Y-3306832D01*
X+717996Y-3296164D01*
X+717996Y-3264160D01*
X+728664Y-3253492D01*
X+771336Y-3253492D01*
X+782004Y-3264160D01*
X+782004Y-3296164D01*
D71*
X+911100Y-3723900D02*
X+1088900Y-3723900D01*
X+1088900Y-2911100D01*
X+911100Y-2911100D01*
X+911100Y-3723900D01*
D72*
X+1032004Y-3445516D02*
X+967996Y-3445516D01*
X+967996Y-3402844D01*
X+989332Y-3381508D01*
X+1010668Y-3381508D01*
X+1032004Y-3402844D01*
X+1032004Y-3445516D01*
X+989332Y-3338836D02*
X+967996Y-3317500D01*
X+1032004Y-3317500D01*
X+1021336Y-3274828D02*
X+978664Y-3274828D01*
X+967996Y-3264160D01*
X+967996Y-3221488D01*
X+978664Y-3210820D01*
X+1021336Y-3210820D01*
X+1032004Y-3221488D01*
X+1032004Y-3264160D01*
X+1021336Y-3274828D01*
X+1032004Y-3274828D02*
X+967996Y-3210820D01*
D71*
X+1161100Y-3723900D02*
X+1338900Y-3723900D01*
X+1338900Y-2911100D01*
X+1161100Y-2911100D01*
X+1161100Y-3723900D01*
D72*
X+1282004Y-3445516D02*
X+1217996Y-3445516D01*
X+1217996Y-3402844D01*
X+1239332Y-3381508D01*
X+1260668Y-3381508D01*
X+1282004Y-3402844D01*
X+1282004Y-3445516D01*
X+1239332Y-3338836D02*
X+1217996Y-3317500D01*
X+1282004Y-3317500D01*
X+1239332Y-3253492D02*
X+1217996Y-3232156D01*
X+1282004Y-3232156D01*
D71*
X+1411100Y-3723900D02*
X+1588900Y-3723900D01*
X+1588900Y-2911100D01*
X+1411100Y-2911100D01*
X+1411100Y-3723900D01*
D72*
X+1532004Y-3445516D02*
X+1467996Y-3445516D01*
X+1467996Y-3402844D01*
X+1489332Y-3381508D01*
X+1510668Y-3381508D01*
X+1532004Y-3402844D01*
X+1532004Y-3445516D01*
X+1489332Y-3338836D02*
X+1467996Y-3317500D01*
X+1532004Y-3317500D01*
X+1478664Y-3264160D02*
X+1467996Y-3253492D01*
X+1467996Y-3221488D01*
X+1478664Y-3210820D01*
X+1489332Y-3210820D01*
X+1500000Y-3221488D01*
X+1500000Y-3253492D01*
X+1510668Y-3264160D01*
X+1532004Y-3264160D01*
X+1532004Y-3210820D01*
D71*
X+1661100Y-3723900D02*
X+1838900Y-3723900D01*
X+1838900Y-2911100D01*
X+1661100Y-2911100D01*
X+1661100Y-3723900D01*
D72*
X+1782004Y-3445516D02*
X+1717996Y-3445516D01*
X+1717996Y-3402844D01*
X+1739332Y-3381508D01*
X+1760668Y-3381508D01*
X+1782004Y-3402844D01*
X+1782004Y-3445516D01*
X+1739332Y-3338836D02*
X+1717996Y-3317500D01*
X+1782004Y-3317500D01*
X+1728664Y-3264160D02*
X+1717996Y-3253492D01*
X+1717996Y-3221488D01*
X+1728664Y-3210820D01*
X+1739332Y-3210820D01*
X+1750000Y-3221488D01*
X+1760668Y-3210820D01*
X+1771336Y-3210820D01*
X+1782004Y-3221488D01*
X+1782004Y-3253492D01*
X+1771336Y-3264160D01*
X+1750000Y-3242824D02*
X+1750000Y-3221488D01*
D71*
X+1911100Y-3723900D02*
X+2088900Y-3723900D01*
X+2088900Y-2911100D01*
X+1911100Y-2911100D01*
X+1911100Y-3723900D01*
D72*
X+2032004Y-3445516D02*
X+1967996Y-3445516D01*
X+1967996Y-3402844D01*
X+1989332Y-3381508D01*
X+2010668Y-3381508D01*
X+2032004Y-3402844D01*
X+2032004Y-3445516D01*
X+1989332Y-3338836D02*
X+1967996Y-3317500D01*
X+2032004Y-3317500D01*
X+2010668Y-3210820D02*
X+2010668Y-3274828D01*
X+1967996Y-3232156D01*
X+2032004Y-3232156D01*
D71*
X+2161100Y-3723900D02*
X+2338900Y-3723900D01*
X+2338900Y-2911100D01*
X+2161100Y-2911100D01*
X+2161100Y-3723900D01*
D72*
X+2282004Y-3445516D02*
X+2217996Y-3445516D01*
X+2217996Y-3402844D01*
X+2239332Y-3381508D01*
X+2260668Y-3381508D01*
X+2282004Y-3402844D01*
X+2282004Y-3445516D01*
X+2239332Y-3338836D02*
X+2217996Y-3317500D01*
X+2282004Y-3317500D01*
X+2217996Y-3210820D02*
X+2217996Y-3264160D01*
X+2239332Y-3264160D01*
X+2239332Y-3221488D01*
X+2250000Y-3210820D01*
X+2271336Y-3210820D01*
X+2282004Y-3221488D01*
X+2282004Y-3253492D01*
X+2271336Y-3264160D01*
D71*
X+2411100Y-3723900D02*
X+2588900Y-3723900D01*
X+2588900Y-2911100D01*
X+2411100Y-2911100D01*
X+2411100Y-3723900D01*
D72*
X+2532004Y-3445516D02*
X+2467996Y-3445516D01*
X+2467996Y-3402844D01*
X+2489332Y-3381508D01*
X+2510668Y-3381508D01*
X+2532004Y-3402844D01*
X+2532004Y-3445516D01*
X+2489332Y-3338836D02*
X+2467996Y-3317500D01*
X+2532004Y-3317500D01*
X+2478664Y-3210820D02*
X+2467996Y-3221488D01*
X+2467996Y-3253492D01*
X+2478664Y-3264160D01*
X+2521336Y-3264160D01*
X+2532004Y-3253492D01*
X+2532004Y-3221488D01*
X+2521336Y-3210820D01*
X+2510668Y-3210820D01*
X+2500000Y-3221488D01*
X+2500000Y-3264160D01*
D71*
X+1612840Y-1518160D02*
X+1887160Y-1518160D01*
X+1887160Y-862840D01*
X+1612840Y-862840D01*
X+1612840Y-1518160D01*
D73*
X+1782919Y-1223419D02*
X+1799378Y-1239878D01*
X+1799378Y-1289255D01*
X+1766460Y-1322173D01*
X+1733541Y-1322173D01*
X+1700623Y-1289255D01*
X+1700623Y-1239878D01*
X+1717082Y-1223419D01*
X+1717082Y-1174041D02*
X+1700623Y-1157582D01*
X+1700623Y-1108205D01*
X+1717082Y-1091746D01*
X+1733541Y-1091746D01*
X+1750000Y-1108205D01*
X+1750000Y-1157582D01*
X+1766460Y-1174041D01*
X+1799378Y-1174041D01*
X+1799378Y-1091746D01*
D71*
X-137160Y-1391160D02*
X+137160Y-1391160D01*
X+137160Y-862840D01*
X-137160Y-862840D01*
X-137160Y-1391160D01*
D73*
X+32919Y-1159919D02*
X+49378Y-1176378D01*
X+49378Y-1225755D01*
X+16460Y-1258673D01*
X-16459Y-1258673D01*
X-49377Y-1225755D01*
X-49377Y-1176378D01*
X-32918Y-1159919D01*
X-32918Y-1110541D02*
X-49377Y-1094082D01*
X-49377Y-1044705D01*
X-32918Y-1028246D01*
X-16459Y-1028246D01*
X+0Y-1044705D01*
X+16460Y-1028246D01*
X+32919Y-1028246D01*
X+49378Y-1044705D01*
X+49378Y-1094082D01*
X+32919Y-1110541D01*
X+0Y-1077623D02*
X+0Y-1044705D01*
D30*
X+4225000Y-1000000D02*
X+4224262Y-981789D01*
X+4218266Y-945365D01*
X+4205750Y-908941D01*
X+4185400Y-872517D01*
X+4154291Y-836234D01*
X+4117867Y-808343D01*
X+4081443Y-790257D01*
X+4045019Y-779550D01*
X+4008595Y-775164D01*
X+4000000Y-775000D01*
X+3775000Y-1000000D02*
X+3775738Y-981789D01*
X+3781734Y-945365D01*
X+3794250Y-908941D01*
X+3814600Y-872517D01*
X+3845709Y-836234D01*
X+3882133Y-808343D01*
X+3918557Y-790257D01*
X+3954981Y-779550D01*
X+3991405Y-775164D01*
X+4000000Y-775000D01*
X+3775000Y-1000000D02*
X+3775738Y-1018211D01*
X+3781734Y-1054635D01*
X+3794250Y-1091059D01*
X+3814600Y-1127483D01*
X+3845709Y-1163766D01*
X+3882133Y-1191657D01*
X+3918557Y-1209743D01*
X+3954981Y-1220450D01*
X+3991405Y-1224836D01*
X+4000000Y-1225000D01*
X+4225000Y-1000000D02*
X+4224262Y-1018211D01*
X+4218266Y-1054635D01*
X+4205750Y-1091059D01*
X+4185400Y-1127483D01*
X+4154291Y-1163766D01*
X+4117867Y-1191657D01*
X+4081443Y-1209743D01*
X+4045019Y-1220450D01*
X+4008595Y-1224836D01*
X+4000000Y-1225000D01*
X+4025000Y-1000000D02*
X+4024914Y-997924D01*
X+4024212Y-993771D01*
X+4022742Y-989618D01*
X+4020340Y-985465D01*
X+4016667Y-981366D01*
X+4012514Y-978357D01*
X+4008361Y-976440D01*
X+4004208Y-975357D01*
X+4000055Y-975000D01*
X+4000000Y-975000D01*
X+3975000Y-1000000D02*
X+3975086Y-997924D01*
X+3975788Y-993771D01*
X+3977258Y-989618D01*
X+3979660Y-985465D01*
X+3983333Y-981366D01*
X+3987486Y-978357D01*
X+3991639Y-976440D01*
X+3995792Y-975357D01*
X+3999945Y-975000D01*
X+4000000Y-975000D01*
X+3975000Y-1000000D02*
X+3975086Y-1002076D01*
X+3975788Y-1006229D01*
X+3977258Y-1010382D01*
X+3979660Y-1014535D01*
X+3983333Y-1018634D01*
X+3987486Y-1021643D01*
X+3991639Y-1023560D01*
X+3995792Y-1024643D01*
X+3999945Y-1025000D01*
X+4000000Y-1025000D01*
X+4025000Y-1000000D02*
X+4024914Y-1002076D01*
X+4024212Y-1006229D01*
X+4022742Y-1010382D01*
X+4020340Y-1014535D01*
X+4016667Y-1018634D01*
X+4012514Y-1021643D01*
X+4008361Y-1023560D01*
X+4004208Y-1024643D01*
X+4000055Y-1025000D01*
X+4000000Y-1025000D01*
X+4035000Y-1000000D02*
X+3965000Y-1000000D01*
X+4000000Y-965000D02*
X+4000000Y-1035000D01*
D31*
X+3969667Y-1030334D02*
X+3954500Y-1045500D01*
X+3909001Y-1045500D01*
X+3878668Y-1015167D01*
X+3878668Y-984834D01*
X+3909001Y-954501D01*
X+3954500Y-954501D01*
X+3969667Y-969667D01*
X+4030333Y-984834D02*
X+4060666Y-954501D01*
X+4060666Y-1045500D01*
D71*
X-2588900Y-5104900D02*
X-2411100Y-5104900D01*
X-2411100Y-3911100D01*
X-2588900Y-3911100D01*
X-2588900Y-5104900D01*
D72*
X-2467996Y-4593344D02*
X-2532004Y-4593344D01*
X-2532004Y-4540004D01*
X-2521336Y-4529336D01*
X-2510668Y-4529336D01*
X-2500000Y-4540004D01*
X-2500000Y-4593344D01*
X-2500000Y-4540004D02*
X-2489332Y-4529336D01*
X-2467996Y-4529336D01*
X-2510668Y-4486664D02*
X-2532004Y-4465328D01*
X-2467996Y-4465328D01*
D71*
X-2338900Y-5104900D02*
X-2161100Y-5104900D01*
X-2161100Y-3911100D01*
X-2338900Y-3911100D01*
X-2338900Y-5104900D01*
D72*
X-2217996Y-4593344D02*
X-2282004Y-4593344D01*
X-2282004Y-4540004D01*
X-2271336Y-4529336D01*
X-2260668Y-4529336D01*
X-2250000Y-4540004D01*
X-2250000Y-4593344D01*
X-2250000Y-4540004D02*
X-2239332Y-4529336D01*
X-2217996Y-4529336D01*
X-2271336Y-4497332D02*
X-2282004Y-4486664D01*
X-2282004Y-4454660D01*
X-2271336Y-4443992D01*
X-2260668Y-4443992D01*
X-2250000Y-4454660D01*
X-2250000Y-4486664D01*
X-2239332Y-4497332D01*
X-2217996Y-4497332D01*
X-2217996Y-4443992D01*
D71*
X-2088900Y-5104900D02*
X-1911100Y-5104900D01*
X-1911100Y-3911100D01*
X-2088900Y-3911100D01*
X-2088900Y-5104900D01*
D72*
X-1967996Y-4593344D02*
X-2032004Y-4593344D01*
X-2032004Y-4540004D01*
X-2021336Y-4529336D01*
X-2010668Y-4529336D01*
X-2000000Y-4540004D01*
X-2000000Y-4593344D01*
X-2000000Y-4540004D02*
X-1989332Y-4529336D01*
X-1967996Y-4529336D01*
X-2021336Y-4497332D02*
X-2032004Y-4486664D01*
X-2032004Y-4454660D01*
X-2021336Y-4443992D01*
X-2010668Y-4443992D01*
X-2000000Y-4454660D01*
X-1989332Y-4443992D01*
X-1978664Y-4443992D01*
X-1967996Y-4454660D01*
X-1967996Y-4486664D01*
X-1978664Y-4497332D01*
X-2000000Y-4475996D02*
X-2000000Y-4454660D01*
D71*
X-1838900Y-5104900D02*
X-1661100Y-5104900D01*
X-1661100Y-3911100D01*
X-1838900Y-3911100D01*
X-1838900Y-5104900D01*
D72*
X-1717996Y-4593344D02*
X-1782004Y-4593344D01*
X-1782004Y-4540004D01*
X-1771336Y-4529336D01*
X-1760668Y-4529336D01*
X-1750000Y-4540004D01*
X-1750000Y-4593344D01*
X-1750000Y-4540004D02*
X-1739332Y-4529336D01*
X-1717996Y-4529336D01*
X-1739332Y-4443992D02*
X-1739332Y-4508000D01*
X-1782004Y-4465328D01*
X-1717996Y-4465328D01*
D71*
X-1588900Y-5104900D02*
X-1411100Y-5104900D01*
X-1411100Y-3911100D01*
X-1588900Y-3911100D01*
X-1588900Y-5104900D01*
D72*
X-1467996Y-4593344D02*
X-1532004Y-4593344D01*
X-1532004Y-4540004D01*
X-1521336Y-4529336D01*
X-1510668Y-4529336D01*
X-1500000Y-4540004D01*
X-1500000Y-4593344D01*
X-1500000Y-4540004D02*
X-1489332Y-4529336D01*
X-1467996Y-4529336D01*
X-1532004Y-4443992D02*
X-1532004Y-4497332D01*
X-1510668Y-4497332D01*
X-1510668Y-4454660D01*
X-1500000Y-4443992D01*
X-1478664Y-4443992D01*
X-1467996Y-4454660D01*
X-1467996Y-4486664D01*
X-1478664Y-4497332D01*
D71*
X-1338900Y-5104900D02*
X-1161100Y-5104900D01*
X-1161100Y-3911100D01*
X-1338900Y-3911100D01*
X-1338900Y-5104900D01*
D72*
X-1217996Y-4593344D02*
X-1282004Y-4593344D01*
X-1282004Y-4540004D01*
X-1271336Y-4529336D01*
X-1260668Y-4529336D01*
X-1250000Y-4540004D01*
X-1250000Y-4593344D01*
X-1250000Y-4540004D02*
X-1239332Y-4529336D01*
X-1217996Y-4529336D01*
X-1271336Y-4443992D02*
X-1282004Y-4454660D01*
X-1282004Y-4486664D01*
X-1271336Y-4497332D01*
X-1228664Y-4497332D01*
X-1217996Y-4486664D01*
X-1217996Y-4454660D01*
X-1228664Y-4443992D01*
X-1239332Y-4443992D01*
X-1250000Y-4454660D01*
X-1250000Y-4497332D01*
D71*
X-1088900Y-5104900D02*
X-911100Y-5104900D01*
X-911100Y-3911100D01*
X-1088900Y-3911100D01*
X-1088900Y-5104900D01*
D72*
X-967996Y-4593344D02*
X-1032004Y-4593344D01*
X-1032004Y-4540004D01*
X-1021336Y-4529336D01*
X-1010668Y-4529336D01*
X-1000000Y-4540004D01*
X-1000000Y-4593344D01*
X-1000000Y-4540004D02*
X-989332Y-4529336D01*
X-967996Y-4529336D01*
X-1032004Y-4497332D02*
X-1032004Y-4443992D01*
X-1021336Y-4443992D01*
X-967996Y-4497332D01*
D71*
X-838900Y-5104900D02*
X-661100Y-5104900D01*
X-661100Y-3911100D01*
X-838900Y-3911100D01*
X-838900Y-5104900D01*
D72*
X-717996Y-4593344D02*
X-782004Y-4593344D01*
X-782004Y-4540004D01*
X-771336Y-4529336D01*
X-760668Y-4529336D01*
X-750000Y-4540004D01*
X-750000Y-4593344D01*
X-750000Y-4540004D02*
X-739332Y-4529336D01*
X-717996Y-4529336D01*
X-750000Y-4486664D02*
X-760668Y-4497332D01*
X-771336Y-4497332D01*
X-782004Y-4486664D01*
X-782004Y-4454660D01*
X-771336Y-4443992D01*
X-760668Y-4443992D01*
X-750000Y-4454660D01*
X-750000Y-4486664D01*
X-739332Y-4497332D01*
X-728664Y-4497332D01*
X-717996Y-4486664D01*
X-717996Y-4454660D01*
X-728664Y-4443992D01*
X-739332Y-4443992D01*
X-750000Y-4454660D01*
D71*
X+661100Y-5104900D02*
X+838900Y-5104900D01*
X+838900Y-3911100D01*
X+661100Y-3911100D01*
X+661100Y-5104900D01*
D72*
X+782004Y-4593344D02*
X+717996Y-4593344D01*
X+717996Y-4540004D01*
X+728664Y-4529336D01*
X+739332Y-4529336D01*
X+750000Y-4540004D01*
X+750000Y-4593344D01*
X+750000Y-4540004D02*
X+760668Y-4529336D01*
X+782004Y-4529336D01*
X+739332Y-4443992D02*
X+750000Y-4454660D01*
X+750000Y-4486664D01*
X+739332Y-4497332D01*
X+728664Y-4497332D01*
X+717996Y-4486664D01*
X+717996Y-4454660D01*
X+728664Y-4443992D01*
X+771336Y-4443992D01*
X+782004Y-4454660D01*
X+782004Y-4486664D01*
D71*
X+911100Y-5104900D02*
X+1088900Y-5104900D01*
X+1088900Y-3911100D01*
X+911100Y-3911100D01*
X+911100Y-5104900D01*
D72*
X+1032004Y-4636016D02*
X+967996Y-4636016D01*
X+967996Y-4582676D01*
X+978664Y-4572008D01*
X+989332Y-4572008D01*
X+1000000Y-4582676D01*
X+1000000Y-4636016D01*
X+1000000Y-4582676D02*
X+1010668Y-4572008D01*
X+1032004Y-4572008D01*
X+989332Y-4529336D02*
X+967996Y-4508000D01*
X+1032004Y-4508000D01*
X+1021336Y-4465328D02*
X+978664Y-4465328D01*
X+967996Y-4454660D01*
X+967996Y-4411988D01*
X+978664Y-4401320D01*
X+1021336Y-4401320D01*
X+1032004Y-4411988D01*
X+1032004Y-4454660D01*
X+1021336Y-4465328D01*
X+1032004Y-4465328D02*
X+967996Y-4401320D01*
D71*
X+1161100Y-5104900D02*
X+1338900Y-5104900D01*
X+1338900Y-3911100D01*
X+1161100Y-3911100D01*
X+1161100Y-5104900D01*
D72*
X+1282004Y-4636016D02*
X+1217996Y-4636016D01*
X+1217996Y-4582676D01*
X+1228664Y-4572008D01*
X+1239332Y-4572008D01*
X+1250000Y-4582676D01*
X+1250000Y-4636016D01*
X+1250000Y-4582676D02*
X+1260668Y-4572008D01*
X+1282004Y-4572008D01*
X+1239332Y-4529336D02*
X+1217996Y-4508000D01*
X+1282004Y-4508000D01*
X+1239332Y-4443992D02*
X+1217996Y-4422656D01*
X+1282004Y-4422656D01*
D71*
X+1411100Y-5104900D02*
X+1588900Y-5104900D01*
X+1588900Y-3911100D01*
X+1411100Y-3911100D01*
X+1411100Y-5104900D01*
D72*
X+1532004Y-4636016D02*
X+1467996Y-4636016D01*
X+1467996Y-4582676D01*
X+1478664Y-4572008D01*
X+1489332Y-4572008D01*
X+1500000Y-4582676D01*
X+1500000Y-4636016D01*
X+1500000Y-4582676D02*
X+1510668Y-4572008D01*
X+1532004Y-4572008D01*
X+1489332Y-4529336D02*
X+1467996Y-4508000D01*
X+1532004Y-4508000D01*
X+1478664Y-4454660D02*
X+1467996Y-4443992D01*
X+1467996Y-4411988D01*
X+1478664Y-4401320D01*
X+1489332Y-4401320D01*
X+1500000Y-4411988D01*
X+1500000Y-4443992D01*
X+1510668Y-4454660D01*
X+1532004Y-4454660D01*
X+1532004Y-4401320D01*
D71*
X+1661100Y-5104900D02*
X+1838900Y-5104900D01*
X+1838900Y-3911100D01*
X+1661100Y-3911100D01*
X+1661100Y-5104900D01*
D72*
X+1782004Y-4636016D02*
X+1717996Y-4636016D01*
X+1717996Y-4582676D01*
X+1728664Y-4572008D01*
X+1739332Y-4572008D01*
X+1750000Y-4582676D01*
X+1750000Y-4636016D01*
X+1750000Y-4582676D02*
X+1760668Y-4572008D01*
X+1782004Y-4572008D01*
X+1739332Y-4529336D02*
X+1717996Y-4508000D01*
X+1782004Y-4508000D01*
X+1728664Y-4454660D02*
X+1717996Y-4443992D01*
X+1717996Y-4411988D01*
X+1728664Y-4401320D01*
X+1739332Y-4401320D01*
X+1750000Y-4411988D01*
X+1760668Y-4401320D01*
X+1771336Y-4401320D01*
X+1782004Y-4411988D01*
X+1782004Y-4443992D01*
X+1771336Y-4454660D01*
X+1750000Y-4433324D02*
X+1750000Y-4411988D01*
D71*
X+1911100Y-5104900D02*
X+2088900Y-5104900D01*
X+2088900Y-3911100D01*
X+1911100Y-3911100D01*
X+1911100Y-5104900D01*
D72*
X+2032004Y-4636016D02*
X+1967996Y-4636016D01*
X+1967996Y-4582676D01*
X+1978664Y-4572008D01*
X+1989332Y-4572008D01*
X+2000000Y-4582676D01*
X+2000000Y-4636016D01*
X+2000000Y-4582676D02*
X+2010668Y-4572008D01*
X+2032004Y-4572008D01*
X+1989332Y-4529336D02*
X+1967996Y-4508000D01*
X+2032004Y-4508000D01*
X+2010668Y-4401320D02*
X+2010668Y-4465328D01*
X+1967996Y-4422656D01*
X+2032004Y-4422656D01*
D71*
X+2161100Y-5104900D02*
X+2338900Y-5104900D01*
X+2338900Y-3911100D01*
X+2161100Y-3911100D01*
X+2161100Y-5104900D01*
D72*
X+2282004Y-4636016D02*
X+2217996Y-4636016D01*
X+2217996Y-4582676D01*
X+2228664Y-4572008D01*
X+2239332Y-4572008D01*
X+2250000Y-4582676D01*
X+2250000Y-4636016D01*
X+2250000Y-4582676D02*
X+2260668Y-4572008D01*
X+2282004Y-4572008D01*
X+2239332Y-4529336D02*
X+2217996Y-4508000D01*
X+2282004Y-4508000D01*
X+2217996Y-4401320D02*
X+2217996Y-4454660D01*
X+2239332Y-4454660D01*
X+2239332Y-4411988D01*
X+2250000Y-4401320D01*
X+2271336Y-4401320D01*
X+2282004Y-4411988D01*
X+2282004Y-4443992D01*
X+2271336Y-4454660D01*
D71*
X+2411100Y-5104900D02*
X+2588900Y-5104900D01*
X+2588900Y-3911100D01*
X+2411100Y-3911100D01*
X+2411100Y-5104900D01*
D72*
X+2532004Y-4636016D02*
X+2467996Y-4636016D01*
X+2467996Y-4582676D01*
X+2478664Y-4572008D01*
X+2489332Y-4572008D01*
X+2500000Y-4582676D01*
X+2500000Y-4636016D01*
X+2500000Y-4582676D02*
X+2510668Y-4572008D01*
X+2532004Y-4572008D01*
X+2489332Y-4529336D02*
X+2467996Y-4508000D01*
X+2532004Y-4508000D01*
X+2478664Y-4401320D02*
X+2467996Y-4411988D01*
X+2467996Y-4443992D01*
X+2478664Y-4454660D01*
X+2521336Y-4454660D01*
X+2532004Y-4443992D01*
X+2532004Y-4411988D01*
X+2521336Y-4401320D01*
X+2510668Y-4401320D01*
X+2500000Y-4411988D01*
X+2500000Y-4454660D01*
D71*
X+911100Y+3395100D02*
X+1088900Y+3395100D01*
X+1088900Y+4588900D01*
X+911100Y+4588900D01*
X+911100Y+3395100D01*
D72*
X+1032004Y+3863984D02*
X+967996Y+3863984D01*
X+967996Y+3917324D01*
X+978664Y+3927992D01*
X+989332Y+3927992D01*
X+1000000Y+3917324D01*
X+1000000Y+3863984D01*
X+1000000Y+3917324D02*
X+1010668Y+3927992D01*
X+1032004Y+3927992D01*
X+989332Y+3970664D02*
X+967996Y+3992000D01*
X+1032004Y+3992000D01*
X+967996Y+4045340D02*
X+967996Y+4098680D01*
X+978664Y+4098680D01*
X+1032004Y+4045340D01*
D71*
X+1161100Y+3395100D02*
X+1338900Y+3395100D01*
X+1338900Y+4588900D01*
X+1161100Y+4588900D01*
X+1161100Y+3395100D01*
D72*
X+1282004Y+3863984D02*
X+1217996Y+3863984D01*
X+1217996Y+3917324D01*
X+1228664Y+3927992D01*
X+1239332Y+3927992D01*
X+1250000Y+3917324D01*
X+1250000Y+3863984D01*
X+1250000Y+3917324D02*
X+1260668Y+3927992D01*
X+1282004Y+3927992D01*
X+1239332Y+3970664D02*
X+1217996Y+3992000D01*
X+1282004Y+3992000D01*
X+1250000Y+4056008D02*
X+1239332Y+4045340D01*
X+1228664Y+4045340D01*
X+1217996Y+4056008D01*
X+1217996Y+4088012D01*
X+1228664Y+4098680D01*
X+1239332Y+4098680D01*
X+1250000Y+4088012D01*
X+1250000Y+4056008D01*
X+1260668Y+4045340D01*
X+1271336Y+4045340D01*
X+1282004Y+4056008D01*
X+1282004Y+4088012D01*
X+1271336Y+4098680D01*
X+1260668Y+4098680D01*
X+1250000Y+4088012D01*
D71*
X+1661100Y+3395100D02*
X+1838900Y+3395100D01*
X+1838900Y+4588900D01*
X+1661100Y+4588900D01*
X+1661100Y+3395100D01*
D72*
X+1782004Y+3863984D02*
X+1717996Y+3863984D01*
X+1717996Y+3917324D01*
X+1728664Y+3927992D01*
X+1739332Y+3927992D01*
X+1750000Y+3917324D01*
X+1750000Y+3863984D01*
X+1750000Y+3917324D02*
X+1760668Y+3927992D01*
X+1782004Y+3927992D01*
X+1739332Y+3970664D02*
X+1717996Y+3992000D01*
X+1782004Y+3992000D01*
X+1739332Y+4098680D02*
X+1750000Y+4088012D01*
X+1750000Y+4056008D01*
X+1739332Y+4045340D01*
X+1728664Y+4045340D01*
X+1717996Y+4056008D01*
X+1717996Y+4088012D01*
X+1728664Y+4098680D01*
X+1771336Y+4098680D01*
X+1782004Y+4088012D01*
X+1782004Y+4056008D01*
D71*
X+2161100Y+3395100D02*
X+2338900Y+3395100D01*
X+2338900Y+4588900D01*
X+2161100Y+4588900D01*
X+2161100Y+3395100D01*
D72*
X+2282004Y+3863984D02*
X+2217996Y+3863984D01*
X+2217996Y+3917324D01*
X+2228664Y+3927992D01*
X+2239332Y+3927992D01*
X+2250000Y+3917324D01*
X+2250000Y+3863984D01*
X+2250000Y+3917324D02*
X+2260668Y+3927992D01*
X+2282004Y+3927992D01*
X+2228664Y+3959996D02*
X+2217996Y+3970664D01*
X+2217996Y+4002668D01*
X+2228664Y+4013336D01*
X+2239332Y+4013336D01*
X+2250000Y+4002668D01*
X+2250000Y+3970664D01*
X+2260668Y+3959996D01*
X+2282004Y+3959996D01*
X+2282004Y+4013336D01*
X+2271336Y+4034672D02*
X+2228664Y+4034672D01*
X+2217996Y+4045340D01*
X+2217996Y+4088012D01*
X+2228664Y+4098680D01*
X+2271336Y+4098680D01*
X+2282004Y+4088012D01*
X+2282004Y+4045340D01*
X+2271336Y+4034672D01*
X+2282004Y+4034672D02*
X+2217996Y+4098680D01*
D71*
X+2661100Y+3395100D02*
X+2838900Y+3395100D01*
X+2838900Y+4588900D01*
X+2661100Y+4588900D01*
X+2661100Y+3395100D01*
D72*
X+2782004Y+3863984D02*
X+2717996Y+3863984D01*
X+2717996Y+3917324D01*
X+2728664Y+3927992D01*
X+2739332Y+3927992D01*
X+2750000Y+3917324D01*
X+2750000Y+3863984D01*
X+2750000Y+3917324D02*
X+2760668Y+3927992D01*
X+2782004Y+3927992D01*
X+2728664Y+3959996D02*
X+2717996Y+3970664D01*
X+2717996Y+4002668D01*
X+2728664Y+4013336D01*
X+2739332Y+4013336D01*
X+2750000Y+4002668D01*
X+2750000Y+3970664D01*
X+2760668Y+3959996D01*
X+2782004Y+3959996D01*
X+2782004Y+4013336D01*
X+2739332Y+4056008D02*
X+2717996Y+4077344D01*
X+2782004Y+4077344D01*
D71*
X+2411100Y+3395100D02*
X+2588900Y+3395100D01*
X+2588900Y+4588900D01*
X+2411100Y+4588900D01*
X+2411100Y+3395100D01*
D72*
X+2532004Y+3863984D02*
X+2467996Y+3863984D01*
X+2467996Y+3917324D01*
X+2478664Y+3927992D01*
X+2489332Y+3927992D01*
X+2500000Y+3917324D01*
X+2500000Y+3863984D01*
X+2500000Y+3917324D02*
X+2510668Y+3927992D01*
X+2532004Y+3927992D01*
X+2478664Y+3959996D02*
X+2467996Y+3970664D01*
X+2467996Y+4002668D01*
X+2478664Y+4013336D01*
X+2489332Y+4013336D01*
X+2500000Y+4002668D01*
X+2500000Y+3970664D01*
X+2510668Y+3959996D01*
X+2532004Y+3959996D01*
X+2532004Y+4013336D01*
X+2478664Y+4045340D02*
X+2467996Y+4056008D01*
X+2467996Y+4088012D01*
X+2478664Y+4098680D01*
X+2489332Y+4098680D01*
X+2500000Y+4088012D01*
X+2500000Y+4056008D01*
X+2510668Y+4045340D01*
X+2532004Y+4045340D01*
X+2532004Y+4098680D01*
D71*
X+1911100Y+3395100D02*
X+2088900Y+3395100D01*
X+2088900Y+4588900D01*
X+1911100Y+4588900D01*
X+1911100Y+3395100D01*
D72*
X+2032004Y+3863984D02*
X+1967996Y+3863984D01*
X+1967996Y+3917324D01*
X+1978664Y+3927992D01*
X+1989332Y+3927992D01*
X+2000000Y+3917324D01*
X+2000000Y+3863984D01*
X+2000000Y+3917324D02*
X+2010668Y+3927992D01*
X+2032004Y+3927992D01*
X+1978664Y+3959996D02*
X+1967996Y+3970664D01*
X+1967996Y+4002668D01*
X+1978664Y+4013336D01*
X+1989332Y+4013336D01*
X+2000000Y+4002668D01*
X+2000000Y+3970664D01*
X+2010668Y+3959996D01*
X+2032004Y+3959996D01*
X+2032004Y+4013336D01*
X+1978664Y+4045340D02*
X+1967996Y+4056008D01*
X+1967996Y+4088012D01*
X+1978664Y+4098680D01*
X+1989332Y+4098680D01*
X+2000000Y+4088012D01*
X+2010668Y+4098680D01*
X+2021336Y+4098680D01*
X+2032004Y+4088012D01*
X+2032004Y+4056008D01*
X+2021336Y+4045340D01*
X+2000000Y+4066676D02*
X+2000000Y+4088012D01*
D71*
X+1411100Y+3395100D02*
X+1588900Y+3395100D01*
X+1588900Y+4588900D01*
X+1411100Y+4588900D01*
X+1411100Y+3395100D01*
D72*
X+1532004Y+3863984D02*
X+1467996Y+3863984D01*
X+1467996Y+3917324D01*
X+1478664Y+3927992D01*
X+1489332Y+3927992D01*
X+1500000Y+3917324D01*
X+1500000Y+3863984D01*
X+1500000Y+3917324D02*
X+1510668Y+3927992D01*
X+1532004Y+3927992D01*
X+1478664Y+3959996D02*
X+1467996Y+3970664D01*
X+1467996Y+4002668D01*
X+1478664Y+4013336D01*
X+1489332Y+4013336D01*
X+1500000Y+4002668D01*
X+1500000Y+3970664D01*
X+1510668Y+3959996D01*
X+1532004Y+3959996D01*
X+1532004Y+4013336D01*
X+1510668Y+4098680D02*
X+1510668Y+4034672D01*
X+1467996Y+4077344D01*
X+1532004Y+4077344D01*
D71*
X-2338900Y+3395100D02*
X-2161100Y+3395100D01*
X-2161100Y+4588900D01*
X-2338900Y+4588900D01*
X-2338900Y+3395100D01*
D72*
X-2217996Y+3863984D02*
X-2282004Y+3863984D01*
X-2282004Y+3917324D01*
X-2271336Y+3927992D01*
X-2260668Y+3927992D01*
X-2250000Y+3917324D01*
X-2250000Y+3863984D01*
X-2250000Y+3917324D02*
X-2239332Y+3927992D01*
X-2217996Y+3927992D01*
X-2271336Y+3959996D02*
X-2282004Y+3970664D01*
X-2282004Y+4002668D01*
X-2271336Y+4013336D01*
X-2260668Y+4013336D01*
X-2250000Y+4002668D01*
X-2250000Y+3970664D01*
X-2239332Y+3959996D01*
X-2217996Y+3959996D01*
X-2217996Y+4013336D01*
X-2282004Y+4098680D02*
X-2282004Y+4045340D01*
X-2260668Y+4045340D01*
X-2260668Y+4088012D01*
X-2250000Y+4098680D01*
X-2228664Y+4098680D01*
X-2217996Y+4088012D01*
X-2217996Y+4056008D01*
X-2228664Y+4045340D01*
D71*
X-1838900Y+3395100D02*
X-1661100Y+3395100D01*
X-1661100Y+4588900D01*
X-1838900Y+4588900D01*
X-1838900Y+3395100D01*
D72*
X-1717996Y+3863984D02*
X-1782004Y+3863984D01*
X-1782004Y+3917324D01*
X-1771336Y+3927992D01*
X-1760668Y+3927992D01*
X-1750000Y+3917324D01*
X-1750000Y+3863984D01*
X-1750000Y+3917324D02*
X-1739332Y+3927992D01*
X-1717996Y+3927992D01*
X-1771336Y+3959996D02*
X-1782004Y+3970664D01*
X-1782004Y+4002668D01*
X-1771336Y+4013336D01*
X-1760668Y+4013336D01*
X-1750000Y+4002668D01*
X-1750000Y+3970664D01*
X-1739332Y+3959996D01*
X-1717996Y+3959996D01*
X-1717996Y+4013336D01*
X-1771336Y+4098680D02*
X-1782004Y+4088012D01*
X-1782004Y+4056008D01*
X-1771336Y+4045340D01*
X-1728664Y+4045340D01*
X-1717996Y+4056008D01*
X-1717996Y+4088012D01*
X-1728664Y+4098680D01*
X-1739332Y+4098680D01*
X-1750000Y+4088012D01*
X-1750000Y+4045340D01*
D71*
X-1338900Y+3395100D02*
X-1161100Y+3395100D01*
X-1161100Y+4588900D01*
X-1338900Y+4588900D01*
X-1338900Y+3395100D01*
D72*
X-1217996Y+3863984D02*
X-1282004Y+3863984D01*
X-1282004Y+3917324D01*
X-1271336Y+3927992D01*
X-1260668Y+3927992D01*
X-1250000Y+3917324D01*
X-1250000Y+3863984D01*
X-1250000Y+3917324D02*
X-1239332Y+3927992D01*
X-1217996Y+3927992D01*
X-1271336Y+3959996D02*
X-1282004Y+3970664D01*
X-1282004Y+4002668D01*
X-1271336Y+4013336D01*
X-1260668Y+4013336D01*
X-1250000Y+4002668D01*
X-1250000Y+3970664D01*
X-1239332Y+3959996D01*
X-1217996Y+3959996D01*
X-1217996Y+4013336D01*
X-1282004Y+4045340D02*
X-1282004Y+4098680D01*
X-1271336Y+4098680D01*
X-1217996Y+4045340D01*
D71*
X-838900Y+3395100D02*
X-661100Y+3395100D01*
X-661100Y+4588900D01*
X-838900Y+4588900D01*
X-838900Y+3395100D01*
D72*
X-717996Y+3863984D02*
X-782004Y+3863984D01*
X-782004Y+3917324D01*
X-771336Y+3927992D01*
X-760668Y+3927992D01*
X-750000Y+3917324D01*
X-750000Y+3863984D01*
X-750000Y+3917324D02*
X-739332Y+3927992D01*
X-717996Y+3927992D01*
X-771336Y+3959996D02*
X-782004Y+3970664D01*
X-782004Y+4002668D01*
X-771336Y+4013336D01*
X-760668Y+4013336D01*
X-750000Y+4002668D01*
X-750000Y+3970664D01*
X-739332Y+3959996D01*
X-717996Y+3959996D01*
X-717996Y+4013336D01*
X-750000Y+4056008D02*
X-760668Y+4045340D01*
X-771336Y+4045340D01*
X-782004Y+4056008D01*
X-782004Y+4088012D01*
X-771336Y+4098680D01*
X-760668Y+4098680D01*
X-750000Y+4088012D01*
X-750000Y+4056008D01*
X-739332Y+4045340D01*
X-728664Y+4045340D01*
X-717996Y+4056008D01*
X-717996Y+4088012D01*
X-728664Y+4098680D01*
X-739332Y+4098680D01*
X-750000Y+4088012D01*
D71*
X-338900Y+3395100D02*
X-161100Y+3395100D01*
X-161100Y+4588900D01*
X-338900Y+4588900D01*
X-338900Y+3395100D01*
D72*
X-217996Y+3863984D02*
X-282004Y+3863984D01*
X-282004Y+3917324D01*
X-271336Y+3927992D01*
X-260668Y+3927992D01*
X-250000Y+3917324D01*
X-250000Y+3863984D01*
X-250000Y+3917324D02*
X-239332Y+3927992D01*
X-217996Y+3927992D01*
X-271336Y+3959996D02*
X-282004Y+3970664D01*
X-282004Y+4002668D01*
X-271336Y+4013336D01*
X-260668Y+4013336D01*
X-250000Y+4002668D01*
X-250000Y+3970664D01*
X-239332Y+3959996D01*
X-217996Y+3959996D01*
X-217996Y+4013336D01*
X-260668Y+4098680D02*
X-250000Y+4088012D01*
X-250000Y+4056008D01*
X-260668Y+4045340D01*
X-271336Y+4045340D01*
X-282004Y+4056008D01*
X-282004Y+4088012D01*
X-271336Y+4098680D01*
X-228664Y+4098680D01*
X-217996Y+4088012D01*
X-217996Y+4056008D01*
D71*
X+161100Y+3395100D02*
X+338900Y+3395100D01*
X+338900Y+4588900D01*
X+161100Y+4588900D01*
X+161100Y+3395100D01*
D72*
X+282004Y+3863984D02*
X+217996Y+3863984D01*
X+217996Y+3917324D01*
X+228664Y+3927992D01*
X+239332Y+3927992D01*
X+250000Y+3917324D01*
X+250000Y+3863984D01*
X+250000Y+3917324D02*
X+260668Y+3927992D01*
X+282004Y+3927992D01*
X+228664Y+3959996D02*
X+217996Y+3970664D01*
X+217996Y+4002668D01*
X+228664Y+4013336D01*
X+239332Y+4013336D01*
X+250000Y+4002668D01*
X+260668Y+4013336D01*
X+271336Y+4013336D01*
X+282004Y+4002668D01*
X+282004Y+3970664D01*
X+271336Y+3959996D01*
X+250000Y+3981332D02*
X+250000Y+4002668D01*
X+271336Y+4034672D02*
X+228664Y+4034672D01*
X+217996Y+4045340D01*
X+217996Y+4088012D01*
X+228664Y+4098680D01*
X+271336Y+4098680D01*
X+282004Y+4088012D01*
X+282004Y+4045340D01*
X+271336Y+4034672D01*
X+282004Y+4034672D02*
X+217996Y+4098680D01*
D71*
X-1588900Y+3395100D02*
X-1411100Y+3395100D01*
X-1411100Y+4588900D01*
X-1588900Y+4588900D01*
X-1588900Y+3395100D01*
D72*
X-1467996Y+3863984D02*
X-1532004Y+3863984D01*
X-1532004Y+3917324D01*
X-1521336Y+3927992D01*
X-1510668Y+3927992D01*
X-1500000Y+3917324D01*
X-1500000Y+3863984D01*
X-1500000Y+3917324D02*
X-1489332Y+3927992D01*
X-1467996Y+3927992D01*
X-1521336Y+3959996D02*
X-1532004Y+3970664D01*
X-1532004Y+4002668D01*
X-1521336Y+4013336D01*
X-1510668Y+4013336D01*
X-1500000Y+4002668D01*
X-1489332Y+4013336D01*
X-1478664Y+4013336D01*
X-1467996Y+4002668D01*
X-1467996Y+3970664D01*
X-1478664Y+3959996D01*
X-1500000Y+3981332D02*
X-1500000Y+4002668D01*
X-1510668Y+4056008D02*
X-1532004Y+4077344D01*
X-1467996Y+4077344D01*
D71*
X-2088900Y+3395100D02*
X-1911100Y+3395100D01*
X-1911100Y+4588900D01*
X-2088900Y+4588900D01*
X-2088900Y+3395100D01*
D72*
X-1967996Y+3863984D02*
X-2032004Y+3863984D01*
X-2032004Y+3917324D01*
X-2021336Y+3927992D01*
X-2010668Y+3927992D01*
X-2000000Y+3917324D01*
X-2000000Y+3863984D01*
X-2000000Y+3917324D02*
X-1989332Y+3927992D01*
X-1967996Y+3927992D01*
X-2021336Y+3959996D02*
X-2032004Y+3970664D01*
X-2032004Y+4002668D01*
X-2021336Y+4013336D01*
X-2010668Y+4013336D01*
X-2000000Y+4002668D01*
X-1989332Y+4013336D01*
X-1978664Y+4013336D01*
X-1967996Y+4002668D01*
X-1967996Y+3970664D01*
X-1978664Y+3959996D01*
X-2000000Y+3981332D02*
X-2000000Y+4002668D01*
X-2021336Y+4045340D02*
X-2032004Y+4056008D01*
X-2032004Y+4088012D01*
X-2021336Y+4098680D01*
X-2010668Y+4098680D01*
X-2000000Y+4088012D01*
X-2000000Y+4056008D01*
X-1989332Y+4045340D01*
X-1967996Y+4045340D01*
X-1967996Y+4098680D01*
D21*
X-2431290Y+5927800D02*
X+177290Y+5927800D01*
X+177290Y+4810200D01*
X-2431290Y+4810200D01*
X-2431290Y+5927800D01*
X+177290Y+5927800D01*
X+177290Y+4810200D01*
X-2431290Y+4810200D01*
X-2431290Y+5927800D01*
D32*
X-1966622Y+5211570D02*
X-1966622Y+5526429D01*
X-1756717Y+5526429D01*
X-1651764Y+5421476D01*
X-1651764Y+5316523D01*
X-1756717Y+5211570D01*
X-1966622Y+5211570D01*
X-1546811Y+5264047D02*
X-1494335Y+5211570D01*
X-1284430Y+5211570D01*
X-1231953Y+5264047D01*
X-1231953Y+5316523D01*
X-1284430Y+5369000D01*
X-1494335Y+5369000D01*
X-1546811Y+5421476D01*
X-1546811Y+5473952D01*
X-1494335Y+5526429D01*
X-1284430Y+5526429D01*
X-1231953Y+5473952D01*
X-1127000Y+5526429D02*
X-1127000Y+5211570D01*
X-969571Y+5369000D01*
X-812142Y+5211570D01*
X-812142Y+5526429D01*
X-602237Y+5421476D02*
X-497284Y+5526429D01*
X-497284Y+5211570D01*
D21*
X+763020Y+5927800D02*
X+2982980Y+5927800D01*
X+2982980Y+4810200D01*
X+763020Y+4810200D01*
X+763020Y+5927800D01*
X+2982980Y+5927800D01*
X+2982980Y+4810200D01*
X+763020Y+4810200D01*
X+763020Y+5927800D01*
D33*
X+1157736Y+5234888D02*
X+1157736Y+5503112D01*
X+1336552Y+5503112D01*
X+1425960Y+5413704D01*
X+1425960Y+5324296D01*
X+1336552Y+5234888D01*
X+1157736Y+5234888D01*
X+1515368Y+5279592D02*
X+1560072Y+5234888D01*
X+1738888Y+5234888D01*
X+1783592Y+5279592D01*
X+1783592Y+5324296D01*
X+1738888Y+5369000D01*
X+1560072Y+5369000D01*
X+1515368Y+5413704D01*
X+1515368Y+5458408D01*
X+1560072Y+5503112D01*
X+1738888Y+5503112D01*
X+1783592Y+5458408D01*
X+1873000Y+5503112D02*
X+1873000Y+5234888D01*
X+2007112Y+5369000D01*
X+2141224Y+5234888D01*
X+2141224Y+5503112D01*
X+2275336Y+5458408D02*
X+2320040Y+5503112D01*
X+2454152Y+5503112D01*
X+2498856Y+5458408D01*
X+2498856Y+5413704D01*
X+2454152Y+5369000D01*
X+2320040Y+5369000D01*
X+2275336Y+5324296D01*
X+2275336Y+5234888D01*
X+2498856Y+5234888D01*
D71*
X-3250000Y-5750000D02*
X+5500000Y-5750000D01*
X+5500000Y+6500000D01*
X-3250000Y+6500000D01*
X-3250000Y-5750000D01*
M02*
